<svg width="256" height="256" viewBox="0 0 256 256" xmlns="http://www.w3.org/2000/svg">
<defs>
  <filter id="glow" x="-50%" y="-50%" width="200%" height="200%">
    <feGaussianBlur stdDeviation="4" result="coloredBlur"/>
    <feMerge>
      <feMergeNode in="coloredBlur"/>
      <feMergeNode in="SourceGraphic"/>
    </feMerge>
  </filter>
</defs>
<rect width="256" height="256" fill="#0b0b0b"/>
<g filter="url(#glow)" stroke="#00f0ff" stroke-width="4" fill="none">
  <path d="M80,120 C60,110 52,90 60,72 C68,54 88,48 104,56 C112,32 152,32 160,56 C180,44 204,56 204,80 C228,88 228,120 208,132
           C212,160 188,176 168,168 C156,188 124,188 112,168 C96,176 72,164 72,144 C52,140 44,120 56,104" />
  <path d="M128,76 L128,180" />
  <path d="M96,96 L160,96" />
  <path d="M96,128 L160,128" />
  <path d="M96,160 L160,160" />
</g>
</svg>